<?xml version="1.0" encoding="UTF-8"?>
<svg xmlns="http://www.w3.org/2000/svg" xmlns:xlink="http://www.w3.org/1999/xlink" width="5250" height="2700" viewBox="0 0 5250 2700">
<rect x="-525" y="-270" width="6300" height="3240" fill="rgb(100%, 100%, 100%)" fill-opacity="1"/>
<path fill-rule="evenodd" fill="rgb(0%, 0%, 0%)" fill-opacity="1" d="M 3917.089844 1729.246094 C 3973.121094 1728.265625 4024.421875 1719.574219 4071.449219 1693.828125 C 4113.699219 1670.699219 4143.691406 1636.378906 4158.359375 1590.179688 C 4172.378906 1546.03125 4148.820312 1511.269531 4102.679688 1506.089844 C 4082.820312 1503.871094 4063.679688 1507.121094 4045.121094 1514.121094 C 4011.441406 1526.820312 3983.019531 1547.269531 3958.289062 1573.148438 C 3918.980469 1614.289062 3894.128906 1662.839844 3883.210938 1718.675781 C 3881.878906 1725.511719 3883.691406 1727.941406 3890.449219 1728.058594 C 3900.339844 1728.234375 3910.230469 1728.921875 3917.089844 1729.246094 M 4527.78125 2359.550781 C 4528.058594 2356.160156 4525.511719 2354.089844 4523.949219 2351.675781 C 4502.039062 2317.816406 4484.550781 2281.789062 4470.898438 2243.882812 C 4464.648438 2226.539062 4460.789062 2208.75 4462.21875 2190.125 C 4462.648438 2184.503906 4463.660156 2179.027344 4465.871094 2173.839844 C 4472.570312 2158.046875 4487.941406 2154.179688 4501.261719 2164.941406 C 4507.660156 2170.117188 4512.359375 2176.792969 4516.960938 2183.492188 C 4532.949219 2206.753906 4547.191406 2231.089844 4561.078125 2255.636719 C 4595.980469 2317.289062 4637.730469 2374.171875 4681.789062 2429.449219 C 4685.929688 2434.628906 4690.589844 2439.285156 4695.808594 2443.386719 C 4700.808594 2447.324219 4705.410156 2451.695312 4709.210938 2456.835938 C 4723.480469 2476.175781 4720.050781 2501.140625 4700.949219 2515.738281 C 4688.46875 2525.285156 4673.789062 2529.34375 4658.621094 2531.71875 C 4636.730469 2535.148438 4614.609375 2535.984375 4592.539062 2536.714844 C 4541.160156 2538.425781 4490.359375 2545.328125 4439.441406 2551.792969 C 4394.089844 2557.554688 4348.300781 2558.734375 4302.558594 2558.835938 C 4295.199219 2558.847656 4287.800781 2558.316406 4280.730469 2555.984375 C 4270.609375 2552.648438 4263.441406 2546.21875 4261.328125 2535.453125 C 4259.171875 2524.414062 4263.351562 2515.535156 4271.871094 2508.542969 C 4278.46875 2503.128906 4286.269531 2499.902344 4294.21875 2497.277344 C 4362.851562 2474.695312 4431.78125 2453.464844 4504.960938 2452.019531 C 4506.929688 2451.980469 4509.050781 2452.289062 4510.859375 2450.785156 C 4511.179688 2448.246094 4508.898438 2448.164062 4507.5 2447.648438 C 4418.960938 2415.375 4338.160156 2367.535156 4256.308594 2321.988281 C 4184.609375 2282.085938 4114.441406 2239.46875 4047.601562 2191.722656 C 3987.070312 2148.507812 3932.539062 2098.871094 3889.589844 2037.636719 C 3845.691406 1975.066406 3816.238281 1906.628906 3807.851562 1830.003906 C 3806.460938 1817.371094 3805.5 1804.695312 3805.761719 1791.984375 C 3805.851562 1787.246094 3804.25 1784.632812 3799.640625 1782.9375 C 3710.648438 1750.285156 3645.269531 1689.839844 3596.949219 1609.679688 C 3556.820312 1543.101562 3530.300781 1471.691406 3522.769531 1393.878906 C 3519.660156 1361.679688 3519.03125 1329.460938 3526.46875 1297.621094 C 3528.949219 1286.988281 3532.929688 1282.128906 3539.011719 1282.71875 C 3548.308594 1283.640625 3549.320312 1291.378906 3550.730469 1298.328125 C 3560.53125 1346.609375 3569.320312 1395.160156 3584.71875 1442.070312 C 3608.308594 1513.921875 3643.019531 1579.488281 3696.421875 1633.96875 C 3727.570312 1665.761719 3764.191406 1689.691406 3805.238281 1706.863281 C 3813.890625 1710.484375 3813.898438 1710.402344 3816 1701.21875 C 3838.929688 1600.769531 3895.089844 1523.46875 3981.191406 1468.199219 C 4021.539062 1442.289062 4066.53125 1430.851562 4114.960938 1435.601562 C 4209.578125 1444.871094 4265.269531 1528.53125 4235.640625 1618.941406 C 4214.800781 1682.519531 4172.269531 1729.195312 4114.359375 1761.046875 C 4044.820312 1799.296875 3969.410156 1810.617188 3890.921875 1804.003906 C 3878.78125 1802.980469 3878.558594 1802.765625 3880.5 1815.105469 C 3891.5 1884.925781 3921.359375 1946.085938 3966.5 1999.984375 C 4010.308594 2052.269531 4063.191406 2094.144531 4119.660156 2131.703125 C 4212.449219 2193.40625 4309.410156 2247.800781 4409.320312 2297.09375 C 4447.808594 2316.082031 4486.128906 2335.457031 4522.839844 2357.824219 C 4524.269531 2358.703125 4525.621094 2360.074219 4527.78125 2359.550781 "/>
<path fill-rule="evenodd" fill="rgb(0%, 0%, 0%)" fill-opacity="1" d="M 1256.300781 1907.90625 C 1274.121094 1907.886719 1291.078125 1903.726562 1307.191406 1896.425781 C 1364.25 1870.589844 1403.640625 1828.347656 1424.339844 1769.054688 C 1430.738281 1750.695312 1434.078125 1731.773438 1433.441406 1712.21875 C 1433.261719 1706.597656 1431.609375 1704.285156 1425.589844 1706.351562 C 1415.511719 1709.796875 1405.160156 1712.472656 1395.109375 1715.996094 C 1344.671875 1733.671875 1298.308594 1758.121094 1261.121094 1797.566406 C 1245.339844 1814.304688 1231.691406 1832.550781 1223.589844 1854.351562 C 1219.558594 1865.160156 1217.148438 1876.28125 1218.648438 1887.929688 C 1219.730469 1896.296875 1224.109375 1901.929688 1232.261719 1904.527344 C 1240.089844 1907.011719 1248.128906 1907.902344 1256.300781 1907.90625 M 2271.558594 1904.222656 C 2271.601562 1898.984375 2269.71875 1895.886719 2268.53125 1892.628906 C 2255.429688 1856.796875 2243.96875 1820.476562 2236.550781 1783.023438 C 2232.679688 1763.460938 2231.269531 1743.75 2235.640625 1724.011719 C 2236.96875 1718.027344 2238.769531 1712.21875 2242.070312 1706.992188 C 2250.410156 1693.839844 2265.730469 1691.691406 2277.371094 1702.082031 C 2285.25 1709.132812 2288.988281 1718.644531 2292.230469 1728.304688 C 2301.859375 1756.945312 2311.140625 1785.703125 2320.96875 1814.285156 C 2346.449219 1888.429688 2379.628906 1959.269531 2412.328125 2030.320312 C 2415.859375 2037.992188 2420.390625 2044.960938 2426 2051.296875 C 2432.609375 2058.753906 2438.359375 2066.804688 2441.46875 2076.433594 C 2448.851562 2099.238281 2438.628906 2121.757812 2416.53125 2130.984375 C 2412.578125 2132.644531 2408.371094 2133.855469 2404.160156 2134.683594 C 2399.449219 2135.601562 2394.578125 2136.429688 2389.808594 2136.3125 C 2322.769531 2134.683594 2255.730469 2136.585938 2188.691406 2136.511719 C 2175.960938 2136.5 2163.441406 2134.054688 2150.960938 2131.589844 C 2125.039062 2126.457031 2098.910156 2122.628906 2072.660156 2119.542969 C 2056.460938 2117.636719 2046.660156 2110.605469 2043.308594 2098.25 C 2039.808594 2085.300781 2045.460938 2071.695312 2058.238281 2062.703125 C 2070.25 2054.257812 2084.21875 2051.640625 2098.320312 2049.242188 C 2159.558594 2038.804688 2220.949219 2036.246094 2282.609375 2045.253906 C 2284.871094 2045.582031 2287.160156 2045.621094 2289.449219 2045.710938 C 2289.878906 2045.722656 2290.328125 2045.347656 2290.859375 2045.113281 C 2291.460938 2042.476562 2289.121094 2041.722656 2287.710938 2040.546875 C 2282.828125 2036.488281 2277.960938 2032.386719 2272.839844 2028.652344 C 2212.390625 1984.578125 2157.191406 1934.351562 2101.75 1884.308594 C 2022.429688 1812.734375 1932.269531 1759.0625 1829.421875 1728.691406 C 1737.839844 1701.65625 1644.300781 1686.328125 1548.441406 1688.160156 C 1536.769531 1688.378906 1525.121094 1689.53125 1513.460938 1690.160156 C 1509.058594 1690.398438 1507.378906 1692.109375 1507.730469 1696.878906 C 1514.578125 1790.605469 1476.671875 1864.917969 1406.71875 1924.125 C 1369.300781 1955.804688 1326.398438 1977.542969 1276.75 1983.214844 C 1254.320312 1985.785156 1232.078125 1984.679688 1210.5 1977.289062 C 1171.328125 1963.867188 1147.308594 1931.601562 1145.761719 1890.1875 C 1144.511719 1857.144531 1154.210938 1827.007812 1170.890625 1798.917969 C 1196.890625 1755.109375 1233.890625 1722.277344 1275.828125 1694.46875 C 1308.378906 1672.890625 1343.21875 1655.871094 1379.78125 1642.25 C 1381.839844 1641.480469 1385.148438 1641.46875 1385.429688 1639.058594 C 1385.761719 1636.03125 1382.199219 1635.601562 1380.109375 1634.5 C 1345.820312 1616.480469 1308.859375 1611.019531 1270.769531 1612.980469 C 1150.5 1619.140625 1042.960938 1658.429688 951.199219 1737.753906 C 942.796875 1745.011719 933.703125 1751.476562 926.871094 1760.609375 C 921.800781 1767.378906 910.839844 1764.300781 907.132812 1755.664062 C 904.558594 1749.6875 905.539062 1743.703125 907.460938 1737.796875 C 910.492188 1728.5 915.667969 1720.359375 921.375 1712.542969 C 944.320312 1681.109375 973.335938 1656.160156 1005.871094 1635.378906 C 1094.359375 1578.890625 1190.53125 1546.890625 1296.21875 1546.851562 C 1332.539062 1546.839844 1368.128906 1552.039062 1402.058594 1565.929688 C 1427.089844 1576.160156 1449.359375 1590.460938 1467.839844 1610.339844 C 1471.238281 1613.988281 1474.570312 1615.660156 1479.808594 1614.769531 C 1604.75 1593.449219 1727.949219 1604.539062 1849.730469 1636.191406 C 1977.859375 1669.480469 2088.359375 1734.964844 2185.871094 1823.476562 C 2213.511719 1848.566406 2241.191406 1873.621094 2267.21875 1900.417969 C 2268.238281 1901.46875 2269.421875 1902.363281 2271.558594 1904.222656 "/>
<path fill-rule="evenodd" fill="rgb(0%, 0%, 0%)" fill-opacity="1" d="M 432.042969 361.628906 C 432.117188 354.738281 431.101562 347.96875 430.046875 341.191406 C 429.277344 336.308594 427.226562 334.898438 422.269531 336.359375 C 398.527344 343.371094 375.8125 352.621094 355.230469 366.539062 C 344.210938 374 334.433594 382.828125 327.726562 394.53125 C 317.445312 412.480469 322.308594 426.859375 341.90625 433.710938 C 366.167969 442.191406 388.628906 438.359375 407.507812 420.320312 C 424.097656 404.460938 432.007812 384.589844 432.042969 361.628906 M 1484.511719 450.5 C 1480.871094 447.179688 1477.949219 447.191406 1475.289062 446.609375 C 1442.539062 439.371094 1409.890625 431.730469 1378.179688 420.621094 C 1359.929688 414.21875 1341.980469 407.121094 1325.640625 396.570312 C 1317.28125 391.179688 1309.339844 385.21875 1303.761719 376.769531 C 1294.390625 362.601562 1299.808594 348.140625 1316.179688 343.449219 C 1324.410156 341.101562 1332.789062 341.511719 1341.140625 342.5 C 1384.351562 347.621094 1426.71875 357.269531 1469.238281 366.109375 C 1542.121094 381.230469 1614.601562 398.019531 1686.089844 418.929688 C 1702.628906 423.769531 1716.609375 431.28125 1719.75 449.988281 C 1722.898438 468.761719 1712.730469 481.558594 1698.539062 491.640625 C 1666.660156 514.308594 1634.980469 537.339844 1601.390625 557.421875 C 1530.898438 599.558594 1464.320312 647.589844 1395.820312 692.710938 C 1386.5 698.859375 1377.53125 705.679688 1367.089844 709.878906 C 1358.460938 713.359375 1350.019531 712.941406 1342.988281 706.140625 C 1336.070312 699.421875 1335.089844 691.089844 1337.761719 682.179688 C 1339.390625 676.730469 1342.570312 672.128906 1346.140625 667.78125 C 1354.089844 658.109375 1363.539062 649.980469 1373.179688 642.109375 C 1408.429688 613.320312 1446.140625 587.859375 1483.019531 561.300781 C 1497.660156 550.761719 1512.289062 540.199219 1526.828125 529.539062 C 1528.949219 527.988281 1531.878906 527.019531 1532.511719 523.789062 C 1529.96875 522.128906 1527.488281 523.351562 1525.140625 523.761719 C 1378.671875 548.789062 1230.871094 560.691406 1082.671875 568.890625 C 1013.410156 572.71875 944.15625 576.261719 874.769531 574.539062 C 833.613281 573.519531 792.464844 571.570312 752.242188 561.621094 C 685.832031 545.210938 636.703125 507.371094 608.121094 444.390625 C 599.507812 425.429688 590.964844 406.441406 582.613281 387.359375 C 566.667969 350.941406 538.273438 332.53125 499.320312 328.75 C 492.792969 328.121094 491.484375 329.589844 492.773438 336 C 501.085938 377.410156 494.398438 415.960938 468.957031 450.25 C 432.9375 498.808594 361.066406 514.488281 307.816406 485.851562 C 262.53125 461.480469 249.664062 412.671875 277.042969 369.058594 C 286.496094 354 298.9375 341.738281 313.066406 331.160156 C 338.28125 312.289062 365.996094 298.089844 395.734375 287.808594 C 406.074219 284.25 406.167969 284.210938 399.222656 275.230469 C 367.773438 234.640625 327.746094 204.820312 281.835938 182.621094 C 235.277344 160.089844 186.359375 146.679688 134.296875 146.820312 C 114.941406 146.871094 95.789062 149.121094 77.199219 154.96875 C 71.152344 156.871094 65.378906 156.648438 61.660156 150.71875 C 58.058594 145 59.601562 139.359375 63.765625 134.578125 C 72.824219 124.210938 84.230469 117.171875 97.011719 112.378906 C 127.121094 101.109375 158.480469 98.308594 190.089844 101.390625 C 297.535156 111.820312 383.152344 162.621094 451.289062 244.851562 C 456.460938 251.070312 461.210938 257.839844 464.980469 264.980469 C 468.398438 271.429688 472.761719 272.910156 479.644531 272.570312 C 501.046875 271.519531 522.285156 273.171875 543.058594 278.941406 C 582.476562 289.898438 613.351562 312.230469 634.78125 347.359375 C 644.179688 362.789062 652.800781 378.679688 660.296875 395.050781 C 684.464844 447.808594 727.480469 473.960938 782.699219 483.339844 C 807.789062 487.589844 833.148438 489.710938 858.5625 489.78125 C 1056.871094 490.230469 1254.730469 482.488281 1451.488281 455.910156 C 1462 454.488281 1472.429688 452.488281 1484.511719 450.5 "/>
<path fill-rule="evenodd" fill="rgb(0%, 0%, 0%)" fill-opacity="1" d="M 789.625 1117.980469 C 791.902344 1117.980469 794.195312 1117.960938 796.476562 1117.980469 C 808.035156 1118.109375 808.320312 1117.898438 806.253906 1106.558594 C 800.640625 1075.691406 783.660156 1051.421875 761.261719 1030.550781 C 748.292969 1018.46875 733.4375 1009.191406 716 1004.839844 C 699.652344 1000.769531 685.957031 1006.601562 677.65625 1020.839844 C 671.253906 1031.808594 671.882812 1043.230469 676.125 1054.648438 C 682.488281 1071.789062 694.707031 1084.109375 709.566406 1094.078125 C 733.769531 1110.320312 760.917969 1116.671875 789.625 1117.980469 M 289.375 1750.027344 C 292.601562 1751.386719 295.472656 1749.863281 298.222656 1749.128906 C 355.125 1733.789062 413.492188 1727.757812 471.832031 1721.453125 C 479.945312 1720.574219 488.09375 1720.367188 496.050781 1722.554688 C 504.707031 1724.9375 511.222656 1729.902344 513.238281 1739.066406 C 515.261719 1748.226562 511.503906 1755.453125 504.574219 1761.238281 C 499.460938 1765.511719 493.605469 1768.605469 487.503906 1771.164062 C 385.945312 1813.886719 281.234375 1844.214844 170.644531 1851.226562 C 159.472656 1851.9375 148.304688 1852.371094 137.242188 1850.070312 C 107.621094 1843.929688 93.410156 1816.894531 106.78125 1790.550781 C 136.902344 1731.21875 167.597656 1672.148438 200.8125 1614.480469 C 224.042969 1574.148438 251.367188 1536.5 280.109375 1499.910156 C 285.921875 1492.511719 292.132812 1485.421875 299.894531 1479.960938 C 306.839844 1475.050781 314.40625 1471.921875 322.617188 1476.558594 C 331.023438 1481.300781 332.644531 1489.539062 332.027344 1498.320312 C 331.292969 1508.890625 327.480469 1518.621094 322.871094 1528 C 308.058594 1558.101562 291.066406 1587.019531 274.859375 1616.371094 C 260.003906 1643.269531 244.902344 1670.03125 229.929688 1696.871094 C 228.714844 1699.058594 227.679688 1701.351562 226.003906 1704.71875 C 230.421875 1703.785156 232.476562 1701.148438 234.882812 1699.289062 C 287.636719 1658.679688 336.6875 1613.570312 388.542969 1571.898438 C 461.390625 1513.351562 535.777344 1456.710938 610.039062 1399.941406 C 654.460938 1365.980469 697.914062 1330.859375 734.816406 1288.429688 C 760.015625 1259.449219 781.449219 1228.199219 794.5625 1191.78125 C 797.703125 1183.050781 797.746094 1183 788.4375 1183.039062 C 741.972656 1183.238281 698.707031 1172.628906 660.953125 1144.429688 C 629.777344 1121.140625 608.527344 1091.109375 603.707031 1051.761719 C 594.816406 979.28125 658.191406 920.441406 730.398438 933.511719 C 754.054688 937.78125 775.53125 947.46875 795.007812 961.28125 C 841.113281 993.980469 872.785156 1036.679688 883.925781 1093 C 885.328125 1100.121094 888.089844 1099.5 893.121094 1096.898438 C 937.195312 1074.179688 959.546875 1037.769531 961.070312 988.550781 C 963.363281 914.550781 942.113281 849.308594 888.535156 796.320312 C 882.546875 790.390625 875.929688 785.300781 869.3125 780.148438 C 861.175781 773.828125 858.808594 767.128906 862.039062 760.589844 C 865.34375 753.929688 872.945312 751.230469 882.699219 754.121094 C 903.066406 760.171875 920.898438 771.210938 935.980469 785.738281 C 984.046875 832.058594 1012.558594 888.191406 1018.070312 955.269531 C 1020.308594 982.511719 1019.640625 1009.691406 1012.730469 1036.261719 C 997.144531 1096.148438 959.253906 1136.890625 902.570312 1159.828125 C 889.183594 1165.25 883.585938 1172.191406 880.632812 1186.230469 C 868.046875 1246.050781 837.699219 1297.058594 798.773438 1343.410156 C 764.121094 1384.671875 724.039062 1420.171875 681.574219 1453.03125 C 597.800781 1517.839844 514.183594 1582.871094 429.730469 1646.78125 C 385.796875 1680.019531 339.304688 1709.816406 295.828125 1743.75 C 293.53125 1745.539062 290.457031 1746.65625 289.375 1750.027344 "/>
<path fill-rule="evenodd" fill="rgb(0%, 0%, 0%)" fill-opacity="1" d="M 2807.730469 2358.839844 C 2808.351562 2363.316406 2810.71875 2365.425781 2812.410156 2367.890625 C 2831 2394.914062 2852.898438 2419.40625 2871.910156 2446.113281 C 2883.410156 2462.292969 2893.699219 2479.210938 2902.339844 2497.089844 C 2907.230469 2507.210938 2911.089844 2517.675781 2910.480469 2529.234375 C 2909.648438 2545.183594 2899.039062 2554.898438 2883.03125 2554.359375 C 2873.269531 2554.035156 2864.839844 2549.976562 2856.839844 2544.882812 C 2839.539062 2533.871094 2825.589844 2519.113281 2811.320312 2504.601562 C 2755.828125 2448.15625 2712.261719 2382.363281 2665.328125 2319.214844 C 2653.21875 2302.910156 2640.539062 2287.007812 2629.601562 2269.84375 C 2609.359375 2238.109375 2619.609375 2207.035156 2655.171875 2194.347656 C 2680.761719 2185.214844 2707.691406 2182.28125 2734.558594 2180.738281 C 2781.710938 2178.019531 2829.011719 2176.824219 2876.199219 2178.191406 C 2910.699219 2179.1875 2944.949219 2184.617188 2979.109375 2189.691406 C 2986.898438 2190.855469 2994.480469 2193.109375 3001.75 2196.257812 C 3007.148438 2198.601562 3012.148438 2201.5625 3016.371094 2205.746094 C 3031.199219 2220.484375 3026.28125 2241.640625 3006.320312 2247.8125 C 2993.628906 2251.730469 2980.390625 2253.019531 2967.238281 2253.972656 C 2926.898438 2256.90625 2887.75 2268.453125 2847.300781 2270.542969 C 2846.429688 2270.59375 2845.558594 2271.121094 2843.910156 2271.703125 C 2845.328125 2272.769531 2845.980469 2273.546875 2846.789062 2273.835938 C 2886.230469 2288.101562 2923.289062 2308.207031 2963.109375 2321.453125 C 3029.71875 2343.617188 3097.941406 2355.824219 3168.398438 2351.105469 C 3194.660156 2349.351562 3219.988281 2342.773438 3244.28125 2332.414062 C 3276.429688 2318.710938 3295.789062 2294.996094 3302.441406 2260.488281 C 3309.050781 2226.285156 3305.300781 2192.753906 3297.890625 2159.253906 C 3286.480469 2107.691406 3265.230469 2060 3240.71875 2013.59375 C 3196.609375 1930.058594 3145.011719 1851.355469 3088.519531 1775.71875 C 3061.171875 1739.082031 3034.378906 1701.988281 3015.238281 1660.101562 C 3011.96875 1652.941406 3008.460938 1645.820312 3007.460938 1637.898438 C 3006.71875 1632.019531 3006.269531 1625.789062 3012.261719 1622.171875 C 3018.230469 1618.570312 3023.558594 1621.601562 3028.328125 1625.28125 C 3042.230469 1635.988281 3055.039062 1647.941406 3067.769531 1660.011719 C 3182.308594 1768.789062 3269.5 1897.246094 3338.628906 2038.414062 C 3365.980469 2094.265625 3383.109375 2153.453125 3387.929688 2215.8125 C 3390.128906 2244.136719 3388.5 2272.136719 3381.128906 2299.699219 C 3365.761719 2357.082031 3327.460938 2394.054688 3275.128906 2418.125 C 3234.539062 2436.789062 3191.371094 2444.261719 3146.960938 2444.535156 C 3078.769531 2444.96875 3012.621094 2431.582031 2947.378906 2413.203125 C 2900.609375 2400.011719 2855.039062 2383.445312 2812.019531 2360.484375 C 2810.960938 2359.914062 2809.75 2359.601562 2807.730469 2358.839844 "/>
<path fill-rule="evenodd" fill="rgb(0%, 0%, 0%)" fill-opacity="1" d="M 1552.058594 2427.792969 C 1549.691406 2424.226562 1546.699219 2424.117188 1544.199219 2423.226562 C 1522.128906 2415.421875 1500.609375 2406.375 1480.140625 2394.953125 C 1469.640625 2389.101562 1459.910156 2382.214844 1452.539062 2372.523438 C 1438.320312 2353.847656 1445.609375 2334.871094 1468.671875 2330.667969 C 1484.730469 2327.734375 1500.679688 2330.121094 1516.359375 2333.195312 C 1562.019531 2342.167969 1606.140625 2357.164062 1651.199219 2368.53125 C 1686.421875 2377.402344 1719.328125 2392.015625 1751.410156 2408.683594 C 1754.78125 2410.4375 1758.121094 2412.375 1761.101562 2414.691406 C 1775.289062 2425.699219 1777.339844 2444.65625 1766.039062 2458.625 C 1762.480469 2463.027344 1758.039062 2466.414062 1753.429688 2469.59375 C 1739.808594 2478.992188 1725.660156 2487.585938 1710.550781 2494.273438 C 1647.128906 2522.355469 1585.898438 2555.035156 1522.609375 2583.378906 C 1512.589844 2587.863281 1502.441406 2591.769531 1491.621094 2593.71875 C 1488.628906 2594.257812 1485.578125 2594.625 1482.550781 2594.652344 C 1474.601562 2594.734375 1467.910156 2592.035156 1464.511719 2584.382812 C 1461.019531 2576.53125 1463.109375 2569.285156 1468.828125 2563.34375 C 1477.199219 2554.628906 1487.460938 2548.511719 1498.320312 2543.375 C 1524.511719 2531.023438 1550.691406 2518.671875 1576.859375 2506.28125 C 1579.808594 2504.890625 1582.691406 2503.339844 1586.820312 2501.253906 C 1582.238281 2499.144531 1578.808594 2500.285156 1575.570312 2500.527344 C 1401.519531 2513.476562 1227.449219 2525.765625 1052.800781 2526.214844 C 986.730469 2526.382812 920.691406 2525.804688 855.050781 2516.84375 C 822.699219 2512.4375 791.167969 2505.101562 761.300781 2491.3125 C 714.390625 2469.652344 684.675781 2433.980469 672.285156 2383.828125 C 662.09375 2342.59375 659.429688 2300.5 659.019531 2258.308594 C 658.28125 2182.085938 661.933594 2105.925781 663.601562 2029.742188 C 665.078125 1962.671875 663.691406 1895.636719 662.789062 1828.585938 C 662.261719 1788.949219 662.582031 1749.324219 667.710938 1709.917969 C 668.367188 1704.894531 669.183594 1699.859375 670.4375 1694.960938 C 671.789062 1689.660156 675.261719 1686.011719 680.832031 1685 C 686.746094 1683.941406 691.296875 1686.480469 694.605469 1691.179688 C 698.742188 1697.078125 701.027344 1703.832031 703.046875 1710.671875 C 710.863281 1737.128906 714.039062 1764.378906 716.648438 1791.699219 C 729.835938 1929.757812 730.855469 2068.101562 726.640625 2206.601562 C 725.171875 2254.847656 725.667969 2303.148438 733.226562 2351.039062 C 734.058594 2356.296875 735.328125 2361.507812 736.578125 2366.683594 C 743.953125 2397.09375 762.914062 2416.992188 792.113281 2427.414062 C 819.636719 2437.238281 848.355469 2441.035156 877.257812 2443.421875 C 958.417969 2450.125 1039.710938 2448.613281 1120.960938 2445.875 C 1261.351562 2441.144531 1401.769531 2436.914062 1542 2428.570312 C 1545.160156 2428.386719 1548.300781 2428.085938 1552.058594 2427.792969 "/>
<path fill-rule="evenodd" fill="rgb(0%, 0%, 0%)" fill-opacity="1" d="M 1771.988281 1340.621094 C 1772.730469 1343.070312 1775.011719 1343.25 1776.78125 1344.039062 C 1816.398438 1361.398438 1852.878906 1384.679688 1890.980469 1404.910156 C 1898.601562 1408.960938 1905.410156 1414.5 1910.359375 1421.808594 C 1915.539062 1429.480469 1917.429688 1437.699219 1912.46875 1446.140625 C 1907.441406 1454.679688 1899.191406 1456.898438 1890.050781 1455.660156 C 1874.898438 1453.609375 1860.390625 1448.738281 1845.738281 1444.601562 C 1826.160156 1439.070312 1806.441406 1434.429688 1786.28125 1431.429688 C 1763.339844 1428 1741.28125 1420.890625 1719.519531 1413.050781 C 1684.640625 1400.460938 1649.859375 1387.601562 1615.128906 1374.609375 C 1599.660156 1368.808594 1584.539062 1362.140625 1570.808594 1352.761719 C 1564.261719 1348.300781 1558.308594 1343.171875 1553.609375 1336.738281 C 1540.589844 1318.910156 1542.460938 1297.289062 1558.761719 1282.429688 C 1564.539062 1277.148438 1570.871094 1272.269531 1577.558594 1268.191406 C 1604.640625 1251.648438 1630.980469 1233.789062 1659.640625 1219.980469 C 1687.160156 1206.730469 1713.390625 1191.269531 1739.421875 1175.410156 C 1752.441406 1167.46875 1765.71875 1159.988281 1779.46875 1153.390625 C 1786.351562 1150.089844 1793.351562 1147.089844 1800.96875 1145.839844 C 1817.660156 1143.109375 1827.019531 1154.191406 1821.390625 1170.191406 C 1817.78125 1180.511719 1810.898438 1188.691406 1803.410156 1196.359375 C 1779.101562 1221.230469 1751.140625 1241.410156 1721.769531 1259.769531 C 1718.789062 1261.628906 1715.828125 1263.5 1711.53125 1266.210938 C 1717.910156 1268.230469 1722.808594 1266.878906 1727.578125 1266.5 C 1821 1259 1914.421875 1251.5 2007.820312 1243.820312 C 2113.890625 1235.101562 2219.871094 1225.429688 2325.660156 1213.648438 C 2389.359375 1206.558594 2452.421875 1195.738281 2513.449219 1175.339844 C 2574.28125 1155 2627.890625 1123.140625 2671.140625 1075.121094 C 2701.191406 1041.75 2720.78125 1002.179688 2737.191406 960.960938 C 2767.058594 885.859375 2777.640625 808.128906 2767.429688 727.78125 C 2766.050781 716.941406 2763.511719 706.320312 2760.648438 695.769531 C 2758.921875 689.398438 2757.28125 682.988281 2756.011719 676.519531 C 2754.078125 666.660156 2756.648438 660.199219 2763.070312 657.621094 C 2769.289062 655.128906 2774.648438 657.921875 2780.839844 665.789062 C 2808.910156 701.570312 2820.53125 743.148438 2823.421875 787.609375 C 2831.121094 906.230469 2800.449219 1014.160156 2730.441406 1110.160156 C 2678.261719 1181.710938 2606.210938 1224.980469 2522.558594 1250.449219 C 2455.960938 1270.730469 2387.570312 1282.261719 2318.550781 1289.488281 C 2166.980469 1305.359375 2015.398438 1321.140625 1863.480469 1333.339844 C 1835.628906 1335.570312 1807.730469 1336.980469 1779.851562 1338.871094 C 1777.199219 1339.050781 1774.199219 1338.25 1771.988281 1340.621094 "/>
<path fill-rule="evenodd" fill="rgb(0%, 0%, 0%)" fill-opacity="1" d="M 3947.871094 1054.058594 C 3927.78125 1056.289062 3907.660156 1058.25 3887.621094 1060.78125 C 3834.640625 1067.441406 3782.210938 1077.070312 3730.351562 1089.78125 C 3717.988281 1092.800781 3705.941406 1096.808594 3694.519531 1102.511719 C 3691.351562 1104.089844 3688.261719 1105.921875 3685.398438 1108 C 3679.871094 1112.050781 3675.179688 1116.859375 3676.929688 1124.511719 C 3678.691406 1132.160156 3684.941406 1134.421875 3691.738281 1135.648438 C 3706.96875 1138.398438 3722.160156 1136.210938 3737.300781 1134.789062 C 3807.871094 1128.160156 3877.929688 1117.261719 3948.308594 1109.070312 C 3985.128906 1104.789062 4021.921875 1100.058594 4059.03125 1098.480469 C 4080.730469 1097.570312 4093.828125 1079.578125 4089.710938 1057.488281 C 4086.960938 1042.730469 4079.890625 1029.761719 4071.621094 1017.46875 C 4052.5 989.03125 4028.488281 964.890625 4003.769531 941.441406 C 3981.449219 920.289062 3957.871094 900.570312 3934.03125 881.140625 C 3903.960938 856.621094 3869.070312 839.578125 3836.859375 818.390625 C 3834.769531 817.019531 3832.300781 816.128906 3829.890625 815.351562 C 3823.648438 813.328125 3817.75 813.960938 3812.910156 818.71875 C 3807.800781 823.730469 3807.378906 829.910156 3809.429688 836.398438 C 3811.230469 842.070312 3814.878906 846.699219 3818.46875 851.308594 C 3853.25 896.070312 3888.570312 940.339844 3934.320312 974.828125 C 3935.679688 975.859375 3937.351562 976.769531 3937.78125 979.140625 C 3935.378906 980.550781 3933.03125 979.199219 3930.761719 978.730469 C 3871.550781 966.53125 3812.5 953.53125 3753.109375 942.261719 C 3681.910156 928.738281 3609.878906 921.101562 3537.550781 916.949219 C 3459.898438 912.488281 3382.179688 911.070312 3304.5 916.039062 C 3243.121094 919.949219 3183.058594 930.480469 3125.03125 951.800781 C 3022.078125 989.628906 2951.03125 1060.511719 2907.359375 1160.070312 C 2885.449219 1210.011719 2873.859375 1262.269531 2872.941406 1316.828125 C 2872.480469 1343.988281 2870.890625 1371.191406 2875.570312 1398.179688 C 2876.179688 1401.679688 2876.960938 1405.171875 2878.050781 1408.539062 C 2880.859375 1417.28125 2886.339844 1422.03125 2893.539062 1422 C 2901.890625 1421.960938 2906.519531 1416.820312 2909.140625 1409.648438 C 2913.589844 1397.480469 2917.160156 1385.019531 2920.058594 1372.390625 C 2927 1342.160156 2929.421875 1311.128906 2936.589844 1280.941406 C 2945.359375 1244.019531 2956.890625 1208.070312 2972.839844 1173.558594 C 3006.488281 1100.800781 3062.289062 1052.710938 3137.140625 1026.070312 C 3188.519531 1007.789062 3242.039062 999.75 3296.089844 995.429688 C 3424.320312 985.160156 3551.851562 991.96875 3679 1010.910156 C 3766.179688 1023.910156 3853.398438 1036.589844 3940.328125 1051.160156 C 3942.808594 1051.578125 3945.269531 1052.019531 3947.75 1052.429688 C 3947.789062 1052.980469 3947.828125 1053.519531 3947.871094 1054.058594 "/>
<path fill-rule="evenodd" fill="rgb(0%, 0%, 0%)" fill-opacity="1" d="M 3128.359375 353.558594 C 3122.769531 354.609375 3118.890625 357.488281 3114.789062 359.691406 C 3020.609375 410.46875 2922.058594 449.75 2817.410156 472.949219 C 2656.46875 508.621094 2500.160156 492.289062 2348.839844 428.628906 C 2287.941406 403 2233.820312 365.75 2186.738281 319.300781 C 2152.761719 285.769531 2128.078125 246.050781 2117.390625 198.769531 C 2115.378906 189.871094 2113.988281 180.75 2116.28125 171.601562 C 2117.421875 167 2119.269531 162.75 2124.46875 161.589844 C 2129.820312 160.398438 2132.921875 163.78125 2135.71875 167.671875 C 2144.460938 179.839844 2153.828125 191.589844 2161.960938 204.148438 C 2200.578125 263.75 2253.730469 306.679688 2315.890625 339.429688 C 2395.519531 381.390625 2480.761719 403.171875 2570.019531 411.371094 C 2686.308594 422.058594 2798.25 402.800781 2907.71875 364.628906 C 2963.949219 345.019531 3019 322.871094 3070.839844 293.320312 C 3073.480469 291.808594 3076.019531 290.128906 3078.558594 288.460938 C 3078.871094 288.261719 3078.859375 287.578125 3079.039062 286.96875 C 3076.269531 285.058594 3073.179688 286.148438 3070.300781 286.199219 C 3017.960938 287.199219 2965.660156 287.300781 2913.621094 280.351562 C 2899.96875 278.53125 2886.679688 275.230469 2873.96875 269.828125 C 2868.101562 267.339844 2862.539062 264.28125 2857.949219 259.75 C 2847.960938 249.859375 2850.519531 238.839844 2864.058594 235.121094 C 2885.941406 229.128906 2908.339844 226.019531 2930.988281 225.21875 C 2976.671875 223.609375 3022.378906 222.460938 3068.058594 220.800781 C 3123.75 218.769531 3178.898438 211.910156 3233.589844 201.261719 C 3236.320312 200.730469 3239.089844 200.210938 3241.859375 199.929688 C 3266.96875 197.371094 3285.140625 216.671875 3281.140625 241.621094 C 3279.789062 250.019531 3276.230469 257.609375 3272.359375 265.058594 C 3264.609375 279.960938 3255.679688 294.148438 3246.421875 308.109375 C 3226.488281 338.171875 3206.441406 368.148438 3186.300781 398.070312 C 3175.621094 413.898438 3163.429688 428.519531 3149.480469 441.621094 C 3139.429688 451.039062 3131.101562 461.941406 3122.480469 472.609375 C 3117.058594 479.328125 3111.640625 486.070312 3105.929688 492.539062 C 3099.289062 500.058594 3091.640625 502.230469 3084.25 499.21875 C 3076.878906 496.210938 3072.160156 488.191406 3072.460938 478.71875 C 3072.730469 470.179688 3075.179688 462.050781 3079.320312 454.75 C 3097.25 423.140625 3106.820312 387.429688 3127.339844 357.121094 C 3127.828125 356.390625 3127.859375 355.359375 3128.359375 353.558594 "/>
<path fill-rule="evenodd" fill="rgb(0%, 0%, 0%)" fill-opacity="1" d="M 4948.179688 2077.714844 C 4952.449219 2077.367188 4954.320312 2075.09375 4956.480469 2073.488281 C 4982.410156 2054.296875 5008.519531 2035.359375 5034.078125 2015.695312 C 5051.539062 2002.269531 5071.269531 1994.007812 5091.941406 1987.449219 C 5094.339844 1986.6875 5096.859375 1986.203125 5099.371094 1985.828125 C 5110.101562 1984.261719 5119.800781 1986.285156 5126.71875 1995.292969 C 5133.679688 2004.355469 5133.429688 2014.484375 5128.339844 2024.054688 C 5119.101562 2041.433594 5107.878906 2057.832031 5092.039062 2069.613281 C 5045.601562 2104.160156 4999.578125 2139.367188 4950.25 2169.832031 C 4931.179688 2181.613281 4910.75 2190.707031 4889.339844 2197.484375 C 4878.359375 2200.964844 4867.179688 2203.089844 4855.589844 2201.929688 C 4832.46875 2199.585938 4817.96875 2182.28125 4819.839844 2159.152344 C 4827.628906 2062.976562 4836.578125 1966.886719 4839.828125 1870.386719 C 4840.320312 1855.953125 4841.53125 1841.472656 4845.441406 1827.410156 C 4847.089844 1821.488281 4849.269531 1815.816406 4853.238281 1811.035156 C 4860.328125 1802.503906 4869.359375 1802.390625 4876.550781 1810.824219 C 4882.089844 1817.328125 4885.179688 1825.144531 4887.660156 1833.191406 C 4894.121094 1854.230469 4895.941406 1876.019531 4897.710938 1897.789062 C 4900.410156 1930.789062 4899.25 1963.773438 4897.109375 1996.746094 C 4896.96875 1998.90625 4895.949219 2001.191406 4897.5 2003.300781 C 4899.640625 2003.355469 4899.851562 2001.457031 4900.421875 2000.257812 C 4946.519531 1903.164062 4982.160156 1802.847656 4996.460938 1695.628906 C 5013.25 1569.730469 5005.558594 1445.320312 4976.210938 1322 C 4972.808594 1307.679688 4969.730469 1293.269531 4966.949219 1278.808594 C 4965.359375 1270.570312 4964.839844 1262.128906 4967.371094 1253.890625 C 4971.910156 1239.140625 4984.621094 1234.121094 4997.960938 1241.808594 C 5006.070312 1246.488281 5011.988281 1253.480469 5017.25 1261.011719 C 5028.660156 1277.359375 5036.898438 1295.371094 5044.210938 1313.820312 C 5064.621094 1365.339844 5072.980469 1419.378906 5078.820312 1474.128906 C 5090.960938 1588.328125 5082.679688 1700.984375 5053.289062 1811.832031 C 5032.078125 1891.800781 5002.28125 1968.769531 4966.769531 2043.484375 C 4961.359375 2054.886719 4954.738281 2065.714844 4948.179688 2077.714844 "/>
<path fill-rule="evenodd" fill="rgb(0%, 0%, 0%)" fill-opacity="1" d="M 4534.421875 1085.730469 C 4539.738281 1081.261719 4544.878906 1077.261719 4549.640625 1072.859375 C 4580.609375 1044.320312 4615.179688 1020.730469 4650.929688 998.761719 C 4658.5 994.101562 4666.070312 989.378906 4674.578125 986.578125 C 4686.289062 982.730469 4696.898438 985.03125 4703.070312 993.050781 C 4710.199219 1002.320312 4709.070312 1012.121094 4703.621094 1021.589844 C 4700.589844 1026.839844 4696.988281 1031.851562 4693.089844 1036.5 C 4663.140625 1072.191406 4631.230469 1105.75 4592.371094 1132.199219 C 4568.019531 1148.769531 4543.929688 1165.738281 4519.078125 1181.570312 C 4507.941406 1188.671875 4496.390625 1195.191406 4483.28125 1198.101562 C 4457.878906 1203.738281 4441.371094 1189.179688 4441.660156 1163.410156 C 4442.429688 1094.988281 4449.058594 1027.019531 4456.019531 959.070312 C 4458.320312 936.570312 4462.480469 914.339844 4468.199219 892.429688 C 4469.089844 889.011719 4470.199219 885.589844 4471.679688 882.378906 C 4473.691406 878.03125 4476.871094 874.71875 4482.148438 874.859375 C 4487.421875 875 4490.460938 878.480469 4492.289062 882.890625 C 4496.558594 893.191406 4497.039062 904.179688 4497.070312 915.089844 C 4497.191406 950.421875 4494.371094 985.621094 4491.78125 1020.820312 C 4490.269531 1041.300781 4488.429688 1061.769531 4486.648438 1083.429688 C 4490.179688 1079.910156 4491.171875 1076.210938 4492.75 1072.941406 C 4517.96875 1020.558594 4541.089844 967.191406 4567.390625 915.289062 C 4610.5 830.21875 4663.710938 751.75 4720.21875 675.21875 C 4808.730469 555.359375 4906.378906 443.71875 5016.621094 343.308594 C 5062.019531 301.960938 5110.929688 265.339844 5164.339844 234.878906 C 5170.960938 231.121094 5177.71875 227.589844 5184.539062 224.210938 C 5188.410156 222.300781 5192.511719 220.871094 5196.898438 220.601562 C 5202.441406 220.269531 5207.890625 220.640625 5210.828125 226.210938 C 5213.769531 231.75 5211.429688 236.710938 5207.609375 240.800781 C 5203.628906 245.039062 5199.320312 249.019531 5194.871094 252.78125 C 5154.960938 286.609375 5113.488281 318.578125 5074.789062 353.839844 C 4978.628906 441.449219 4891.371094 537.371094 4809.71875 638.5 C 4741.179688 723.390625 4676.859375 811.230469 4624.46875 907.25 C 4593.691406 963.648438 4564.691406 1020.980469 4536.25 1078.589844 C 4535.289062 1080.539062 4533.601562 1082.351562 4534.421875 1085.730469 "/>
<path fill-rule="evenodd" fill="rgb(0%, 0%, 0%)" fill-opacity="1" d="M 4295.988281 496.371094 C 4293.941406 493.980469 4291.910156 491.558594 4289.839844 489.191406 C 4275.28125 472.550781 4261.039062 455.640625 4249.199219 436.890625 C 4243.058594 427.179688 4237.789062 417.019531 4235.480469 405.671875 C 4234.039062 398.558594 4233.378906 391.128906 4240.28125 386.191406 C 4246.929688 381.421875 4253.890625 383.429688 4260.429688 386.859375 C 4272.28125 393.050781 4282.359375 401.640625 4291.519531 411.191406 C 4327.570312 448.820312 4362.089844 487.78125 4392.960938 529.820312 C 4398.25 537.03125 4404.039062 543.609375 4410.921875 549.398438 C 4421.960938 558.710938 4431.070312 569.5 4427.75 585.359375 C 4424.289062 601.890625 4411.078125 608.308594 4396.628906 612.128906 C 4371.269531 618.828125 4345.101562 621.03125 4319.210938 624.710938 C 4298.839844 627.621094 4278.449219 630.320312 4258.089844 633.21875 C 4244.371094 635.171875 4230.820312 635.148438 4217.25 631.730469 C 4209.878906 629.871094 4202.21875 629.269531 4194.761719 627.789062 C 4183.660156 625.570312 4176.960938 619.398438 4175.71875 610.691406 C 4174.410156 601.519531 4179.410156 593.898438 4189.648438 588.460938 C 4217.339844 573.730469 4246.851562 566.578125 4278.179688 566.679688 C 4281.980469 566.691406 4285.769531 566.109375 4289.558594 565.710938 C 4290.25 565.640625 4290.878906 565.121094 4291.519531 564.828125 C 4291.359375 563.140625 4290.140625 562.640625 4288.941406 562.300781 C 4231.378906 546.28125 4179.410156 516.308594 4123.589844 496 C 4049.800781 469.140625 3974.628906 447.890625 3895.96875 441.78125 C 3779.050781 432.699219 3664.179688 444.148438 3551.558594 477.480469 C 3487.519531 496.429688 3425.75 520.710938 3367.03125 552.601562 C 3352.949219 560.230469 3339.058594 568.160156 3326.148438 577.691406 C 3323.578125 579.589844 3321.039062 581.46875 3317.898438 579.46875 C 3314.308594 577.179688 3314.328125 573.5 3315.320312 569.910156 C 3317.558594 561.871094 3322.539062 555.410156 3327.910156 549.261719 C 3344.960938 529.738281 3365.300781 514.28125 3387.480469 501.058594 C 3434.859375 472.808594 3485.640625 452.421875 3537.710938 434.671875 C 3632.75 402.269531 3730.601562 385.699219 3830.710938 382.621094 C 3943.589844 379.160156 4052.679688 399.558594 4158.511719 438.160156 C 4186.648438 448.441406 4214.359375 459.921875 4242.308594 470.78125 C 4260.730469 477.941406 4278.46875 486.488281 4295.988281 496.371094 "/>
</svg>
